#!OML:ASF F:\VICON\USERDATA\INSTALL\Justin_Nancy\Justin_Nancy.ASF
:FULLY-SPECIFIED
:DEGREES
284
root 7.8649 17.5025 6.87082 174.034 -86.4924 -166.236
lowerback 7.73491 1.76798 2.22659
upperback -0.324027 2.63655 2.43255
thorax -4.69119 1.26292 0.969359
lowerneck -15.6063 -5.11187 -9.98999
upperneck 24.0568 -6.48027 6.05175
head 10.8678 -3.28249 2.91995
rclavicle 4.37326e-015 0
rhumerus -25.2254 1.14658 -88.9872
rradius 39.1664
rwrist 0.236848
rhand -14.275 11.5295
rfingers 7.12502
rthumb 11.864 -18.1144
lclavicle 4.37326e-015 0
lhumerus -31.9746 10.8069 80.051
lradius 26.291
lwrist -5.20126
lhand -17.6174 26.9933
lfingers 7.12502
lthumb 8.6396 56.7965
rfemur 1.25321 6.69974 31.8696
rtibia 11.5519
rfoot -13.9753 6.82636
rtoes 24.6601
lfemur -34.9822 0.230756 -9.83851
ltibia 43.035
lfoot -9.23004 2.58424
ltoes -4.16549
285
root 7.75979 17.4937 6.91944 174.776 -85.9567 -166.851
lowerback 7.76144 1.81297 2.11578
upperback -0.313345 2.6908 2.56973
thorax -4.70715 1.29287 1.16694
lowerneck -15.8835 -5.08101 -10.5409
upperneck 24.3923 -6.39761 6.47302
head 11.0752 -3.24682 3.17836
rclavicle -1.51076e-014 1.59028e-015
rhumerus -25.2407 0.949246 -88.6364
rradius 39.0975
rwrist 0.318962
rhand -13.9342 11.3576
rfingers 7.12502
rthumb 12.1926 -18.2671
lclavicle -1.51076e-014 1.59028e-015
lhumerus -31.6522 11.1689 79.919
lradius 26.3834
lwrist -5.32331
lhand -16.6406 26.7015
lfingers 7.12502
lthumb 9.58207 56.4636
rfemur 1.59568 7.07887 31.7454
rtibia 11.5969
rfoot -14.0127 7.14843
rtoes 29.7445
lfemur -35.1906 0.637823 -10.1166
ltibia 40.7848
lfoot -8.96691 3.67589
ltoes -10.2243
286
root 7.64973 17.4884 6.97006 175.133 -85.4963 -167.003
lowerback 7.63749 1.84413 2.06486
upperback -0.302759 2.72586 2.69776
thorax -4.63539 1.31259 1.32854
lowerneck -16.0055 -5.0537 -10.7239
upperneck 24.4187 -6.30639 6.51787
head 11.1088 -3.21448 3.23807
rclavicle -2.50469e-014 2.38542e-015
rhumerus -25.1495 0.501561 -88.3629
rradius 38.8149
rwrist 0.793532
rhand -13.9197 11.2572
rfingers 7.12502
rthumb 12.2065 -18.3666
lclavicle -2.50469e-014 2.38542e-015
lhumerus -31.2797 11.8262 79.7851
lradius 26.3927
lwrist -6.18088
lhand -17.0604 26.8703
lfingers 7.12502
lthumb 9.1771 56.6506
rfemur 1.95005 7.08937 31.6895
rtibia 11.3108
rfoot -14.2274 6.99013
rtoes 30.0717
lfemur -35.4087 0.223322 -9.87484
ltibia 38.5409
lfoot -9.11936 4.344
ltoes -6.45463
287
root 7.5405 17.4774 7.02418 172.047 -84.9844 -163.783
lowerback 7.59286 1.77471 2.47195
upperback -0.266593 2.66745 2.86446
thorax -4.56171 1.27364 1.28279
lowerneck -16.094 -4.93964 -10.8684
upperneck 24.3362 -6.07978 6.50611
head 11.0775 -3.12242 3.29053
rclavicle -6.36111e-015 5.56597e-015
rhumerus -25.1602 0.751239 -88.1258
rradius 38.6106
rwrist 1.2767
rhand -14.258 11.0711
rfingers 7.12502
rthumb 11.8804 -18.5718
lclavicle -6.36111e-015 5.56597e-015
lhumerus -31.0444 13.3835 79.5372
lradius 26.4653
lwrist -7.34208
lhand -17.6906 26.8636
lfingers 7.12502
lthumb 8.56897 56.6697
rfemur 2.58342 7.25092 31.9721
rtibia 10.6818
rfoot -14.1027 6.59252
rtoes 30.6519
lfemur -35.494 -0.644354 -9.06138
ltibia 36.3184
lfoot -9.71906 5.30318
ltoes 1.99182
288
root 7.42162 17.4668 7.07854 170.799 -84.5959 -162.514
lowerback 7.55966 1.58727 2.96517
upperback -0.180505 2.45185 2.85281
thorax -4.43065 1.15521 1.0213
lowerneck -16.074 -4.83644 -10.799
upperneck 24.0317 -5.92604 6.50058
head 10.9413 -3.04058 3.29676
rclavicle -1.15295e-014 -2.78299e-014
rhumerus -25.1241 0.997327 -88.1464
rradius 38.4198
rwrist 1.46697
rhand -14.2006 10.6782
rfingers 7.12502
rthumb 11.9356 -18.9615
lclavicle -1.15295e-014 -2.78299e-014
lhumerus -30.9586 15.1188 79.0757
lradius 26.7347
lwrist -8.30755
lhand -17.6673 26.5747
lfingers 7.12502
lthumb 8.59143 56.3798
rfemur 3.57484 7.49471 32.0408
rtibia 9.60216
rfoot -13.7738 6.21437
rtoes 32.1114
lfemur -35.483 -1.35571 -8.67609
ltibia 34.141
lfoot -10.1732 6.536
ltoes 5.55021
289
root 7.2982 17.4542 7.13546 170.721 -84.2751 -162.36
lowerback 7.48593 1.37712 3.21911
upperback -0.147785 2.18599 2.80066
thorax -4.34391 1.01824 0.856824
lowerneck -16.1144 -4.70132 -10.2817
upperneck 23.8997 -5.78079 6.19792
head 10.8572 -2.95982 3.11866
rclavicle 1.19271e-014 1.03368e-014
rhumerus -25.2353 1.68085 -88.4307
rradius 38.386
rwrist 0.635819
rhand -13.2493 11.2922
rfingers 7.12502
rthumb 12.8529 -18.2921
lclavicle 1.19271e-014 1.03368e-014
lhumerus -30.861 15.9065 78.6312
lradius 27.0063
lwrist -8.30831
lhand -18.1789 26.8033
lfingers 7.12502
lthumb 8.09769 56.6281
rfemur 4.87359 7.70593 31.9578
rtibia 7.81475
rfoot -13.1977 5.8657
rtoes 30.9092
lfemur -35.6488 -2.05037 -8.43711
ltibia 32.2115
lfoot -10.58 7.59223
ltoes 4.66359
290
root 7.17875 17.4284 7.19795 171.316 -83.9845 -162.98
lowerback 7.56246 1.24516 3.30683
upperback -0.123571 2.01852 2.7332
thorax -4.35734 0.932834 0.754608
lowerneck -16.3359 -4.50929 -9.92258
upperneck 24.2388 -5.58246 6.08343
head 10.9903 -2.85444 3.04751
rclavicle 0 2.38542e-015
rhumerus -25.5911 3.02137 -88.7053
rradius 38.543
rwrist -0.771423
rhand -13.4901 11.5514
rfingers 7.12502
rthumb 12.6207 -18.0473
lclavicle 0 2.38542e-015
lhumerus -30.6371 16.2726 78.235
lradius 27.1415
lwrist -8.12781
lhand -18.3745 26.9639
lfingers 7.12502
lthumb 7.9089 56.796
rfemur 6.17331 7.87197 31.9395
rtibia 6.15699
rfoot -12.9657 4.82254
rtoes 25.4926
lfemur -35.6779 -3.18997 -8.12414
ltibia 30.2384
lfoot -11.0346 8.9882
ltoes 4.12657
